<?xml version="1.0" encoding="UTF-8" standalone="no"?>
<!-- Created with Inkscape (http://www.inkscape.org/) -->

<svg
   xmlns:dc="http://purl.org/dc/elements/1.1/"
   xmlns:cc="http://creativecommons.org/ns#"
   xmlns:rdf="http://www.w3.org/1999/02/22-rdf-syntax-ns#"
   xmlns:svg="http://www.w3.org/2000/svg"
   xmlns="http://www.w3.org/2000/svg"
   xmlns:sodipodi="http://sodipodi.sourceforge.net/DTD/sodipodi-0.dtd"
   xmlns:inkscape="http://www.inkscape.org/namespaces/inkscape"
   version="1.1"
   id="svg2"
   xml:space="preserve"
   width="608.23999"
   height="281.28"
   viewBox="0 0 608.23999 281.28"
   sodipodi:docname="main.svg"
   inkscape:version="0.92.4 (5da689c313, 2019-01-14)"><metadata
     id="metadata8"><rdf:RDF><cc:Work
         rdf:about=""><dc:format>image/svg+xml</dc:format><dc:type
           rdf:resource="http://purl.org/dc/dcmitype/StillImage" /><dc:title></dc:title></cc:Work></rdf:RDF></metadata><defs
     id="defs6"><clipPath
       clipPathUnits="userSpaceOnUse"
       id="clipPath40"><path
         d="M 50.4,527.04 H 506.52 V 738 H 50.4 Z"
         id="path38"
         inkscape:connector-curvature="0"
         style="clip-rule:evenodd" /></clipPath><clipPath
       clipPathUnits="userSpaceOnUse"
       id="clipPath52"><path
         d="M 50.4,527.04 H 506.52 V 738 H 50.4 Z"
         id="path50"
         inkscape:connector-curvature="0"
         style="clip-rule:evenodd" /></clipPath><clipPath
       clipPathUnits="userSpaceOnUse"
       id="clipPath64"><path
         d="M 50.4,527.04 H 506.52 V 738 H 50.4 Z"
         id="path62"
         inkscape:connector-curvature="0"
         style="clip-rule:evenodd" /></clipPath><clipPath
       clipPathUnits="userSpaceOnUse"
       id="clipPath76"><path
         d="M 50.4,527.04 H 506.52 V 738 H 50.4 Z"
         id="path74"
         inkscape:connector-curvature="0"
         style="clip-rule:evenodd" /></clipPath><clipPath
       clipPathUnits="userSpaceOnUse"
       id="clipPath88"><path
         d="M 50.4,527.04 H 506.52 V 738 H 50.4 Z"
         id="path86"
         inkscape:connector-curvature="0"
         style="clip-rule:evenodd" /></clipPath><clipPath
       clipPathUnits="userSpaceOnUse"
       id="clipPath100"><path
         d="M 50.4,527.04 H 506.52 V 738 H 50.4 Z"
         id="path98"
         inkscape:connector-curvature="0"
         style="clip-rule:evenodd" /></clipPath><clipPath
       clipPathUnits="userSpaceOnUse"
       id="clipPath112"><path
         d="M 50.4,527.04 H 506.52 V 738 H 50.4 Z"
         id="path110"
         inkscape:connector-curvature="0"
         style="clip-rule:evenodd" /></clipPath><clipPath
       clipPathUnits="userSpaceOnUse"
       id="clipPath124"><path
         d="M 50.4,527.04 H 506.52 V 738 H 50.4 Z"
         id="path122"
         inkscape:connector-curvature="0"
         style="clip-rule:evenodd" /></clipPath><clipPath
       clipPathUnits="userSpaceOnUse"
       id="clipPath136"><path
         d="M 50.4,527.04 H 506.52 V 738 H 50.4 Z"
         id="path134"
         inkscape:connector-curvature="0"
         style="clip-rule:evenodd" /></clipPath><clipPath
       clipPathUnits="userSpaceOnUse"
       id="clipPath148"><path
         d="M 50.4,527.04 H 506.52 V 738 H 50.4 Z"
         id="path146"
         inkscape:connector-curvature="0"
         style="clip-rule:evenodd" /></clipPath><clipPath
       clipPathUnits="userSpaceOnUse"
       id="clipPath160"><path
         d="M 50.4,527.04 H 506.52 V 738 H 50.4 Z"
         id="path158"
         inkscape:connector-curvature="0"
         style="clip-rule:evenodd" /></clipPath><clipPath
       clipPathUnits="userSpaceOnUse"
       id="clipPath172"><path
         d="M 50.4,527.04 H 506.52 V 738 H 50.4 Z"
         id="path170"
         inkscape:connector-curvature="0"
         style="clip-rule:evenodd" /></clipPath><clipPath
       clipPathUnits="userSpaceOnUse"
       id="clipPath184"><path
         d="M 50.4,527.04 H 506.52 V 738 H 50.4 Z"
         id="path182"
         inkscape:connector-curvature="0"
         style="clip-rule:evenodd" /></clipPath><clipPath
       clipPathUnits="userSpaceOnUse"
       id="clipPath196"><path
         d="M 50.4,527.04 H 506.52 V 738 H 50.4 Z"
         id="path194"
         inkscape:connector-curvature="0"
         style="clip-rule:evenodd" /></clipPath><clipPath
       clipPathUnits="userSpaceOnUse"
       id="clipPath208"><path
         d="M 84.48,527.52 H 457.92 V 666.24 H 84.48 Z"
         id="path206"
         inkscape:connector-curvature="0"
         style="clip-rule:evenodd" /></clipPath><clipPath
       clipPathUnits="userSpaceOnUse"
       id="clipPath220"><path
         d="M 50.4,527.04 H 506.64 V 738 H 50.4 Z"
         id="path218"
         inkscape:connector-curvature="0"
         style="clip-rule:evenodd" /></clipPath><clipPath
       clipPathUnits="userSpaceOnUse"
       id="clipPath232"><path
         d="M 50.4,527.04 H 506.64 V 738 H 50.4 Z"
         id="path230"
         inkscape:connector-curvature="0"
         style="clip-rule:evenodd" /></clipPath><clipPath
       clipPathUnits="userSpaceOnUse"
       id="clipPath244"><path
         d="M 50.4,527.04 H 506.64 V 738 H 50.4 Z"
         id="path242"
         inkscape:connector-curvature="0"
         style="clip-rule:evenodd" /></clipPath><clipPath
       clipPathUnits="userSpaceOnUse"
       id="clipPath256"><path
         d="M 50.4,527.04 H 506.64 V 738 H 50.4 Z"
         id="path254"
         inkscape:connector-curvature="0"
         style="clip-rule:evenodd" /></clipPath><clipPath
       clipPathUnits="userSpaceOnUse"
       id="clipPath268"><path
         d="M 50.4,527.04 H 506.64 V 738 H 50.4 Z"
         id="path266"
         inkscape:connector-curvature="0"
         style="clip-rule:evenodd" /></clipPath><clipPath
       clipPathUnits="userSpaceOnUse"
       id="clipPath280"><path
         d="m 114.24,691.8 h 199.32 v 11.64 H 114.24 Z"
         id="path278"
         inkscape:connector-curvature="0"
         style="clip-rule:evenodd" /></clipPath><clipPath
       clipPathUnits="userSpaceOnUse"
       id="clipPath302"><path
         d="M 331.92,543.36 H 492 V 704.88 H 331.92 Z"
         id="path300"
         inkscape:connector-curvature="0"
         style="clip-rule:evenodd" /></clipPath><clipPath
       clipPathUnits="userSpaceOnUse"
       id="clipPath312"><path
         d="M 331.92,543.36 H 492 V 704.88 H 331.92 Z"
         id="path310"
         inkscape:connector-curvature="0"
         style="clip-rule:evenodd" /></clipPath><clipPath
       clipPathUnits="userSpaceOnUse"
       id="clipPath322"><path
         d="M 331.92,543.36 H 492 V 704.88 H 331.92 Z"
         id="path320"
         inkscape:connector-curvature="0"
         style="clip-rule:evenodd" /></clipPath><clipPath
       clipPathUnits="userSpaceOnUse"
       id="clipPath332"><path
         d="M 331.92,543.36 H 492 V 704.88 H 331.92 Z"
         id="path330"
         inkscape:connector-curvature="0"
         style="clip-rule:evenodd" /></clipPath><clipPath
       clipPathUnits="userSpaceOnUse"
       id="clipPath342"><path
         d="M 331.92,543.36 H 492 V 704.88 H 331.92 Z"
         id="path340"
         inkscape:connector-curvature="0"
         style="clip-rule:evenodd" /></clipPath><clipPath
       clipPathUnits="userSpaceOnUse"
       id="clipPath352"><path
         d="M 331.92,543.36 H 492 V 704.88 H 331.92 Z"
         id="path350"
         inkscape:connector-curvature="0"
         style="clip-rule:evenodd" /></clipPath><clipPath
       clipPathUnits="userSpaceOnUse"
       id="clipPath362"><path
         d="M 304.68,527.04 H 507.36 V 738 H 304.68 Z"
         id="path360"
         inkscape:connector-curvature="0"
         style="clip-rule:evenodd" /></clipPath><clipPath
       clipPathUnits="userSpaceOnUse"
       id="clipPath374"><path
         d="M 304.68,527.04 H 507.36 V 738 H 304.68 Z"
         id="path372"
         inkscape:connector-curvature="0"
         style="clip-rule:evenodd" /></clipPath><clipPath
       clipPathUnits="userSpaceOnUse"
       id="clipPath386"><path
         d="M 304.68,527.04 H 507.36 V 738 H 304.68 Z"
         id="path384"
         inkscape:connector-curvature="0"
         style="clip-rule:evenodd" /></clipPath><clipPath
       clipPathUnits="userSpaceOnUse"
       id="clipPath398"><path
         d="M 304.68,527.04 H 507.36 V 738 H 304.68 Z"
         id="path396"
         inkscape:connector-curvature="0"
         style="clip-rule:evenodd" /></clipPath><clipPath
       clipPathUnits="userSpaceOnUse"
       id="clipPath410"><path
         d="M 304.68,527.04 H 507.36 V 738 H 304.68 Z"
         id="path408"
         inkscape:connector-curvature="0"
         style="clip-rule:evenodd" /></clipPath><clipPath
       clipPathUnits="userSpaceOnUse"
       id="clipPath422"><path
         d="M 304.68,527.04 H 507.36 V 738 H 304.68 Z"
         id="path420"
         inkscape:connector-curvature="0"
         style="clip-rule:evenodd" /></clipPath><clipPath
       clipPathUnits="userSpaceOnUse"
       id="clipPath434"><path
         d="M 304.68,527.04 H 507.36 V 738 H 304.68 Z"
         id="path432"
         inkscape:connector-curvature="0"
         style="clip-rule:evenodd" /></clipPath><clipPath
       clipPathUnits="userSpaceOnUse"
       id="clipPath446"><path
         d="M 304.68,527.04 H 507.36 V 738 H 304.68 Z"
         id="path444"
         inkscape:connector-curvature="0"
         style="clip-rule:evenodd" /></clipPath><clipPath
       clipPathUnits="userSpaceOnUse"
       id="clipPath458"><path
         d="M 304.68,527.04 H 507.36 V 738 H 304.68 Z"
         id="path456"
         inkscape:connector-curvature="0"
         style="clip-rule:evenodd" /></clipPath><clipPath
       clipPathUnits="userSpaceOnUse"
       id="clipPath470"><path
         d="M 304.68,527.04 H 507.36 V 738 H 304.68 Z"
         id="path468"
         inkscape:connector-curvature="0"
         style="clip-rule:evenodd" /></clipPath><clipPath
       clipPathUnits="userSpaceOnUse"
       id="clipPath482"><path
         d="M 304.68,527.04 H 507.36 V 738 H 304.68 Z"
         id="path480"
         inkscape:connector-curvature="0"
         style="clip-rule:evenodd" /></clipPath><clipPath
       clipPathUnits="userSpaceOnUse"
       id="clipPath494"><path
         d="M 304.68,527.04 H 507.36 V 738 H 304.68 Z"
         id="path492"
         inkscape:connector-curvature="0"
         style="clip-rule:evenodd" /></clipPath><clipPath
       clipPathUnits="userSpaceOnUse"
       id="clipPath506"><path
         d="M 304.68,527.04 H 507.36 V 738 H 304.68 Z"
         id="path504"
         inkscape:connector-curvature="0"
         style="clip-rule:evenodd" /></clipPath><clipPath
       clipPathUnits="userSpaceOnUse"
       id="clipPath518"><path
         d="M 304.68,527.04 H 507.36 V 738 H 304.68 Z"
         id="path516"
         inkscape:connector-curvature="0"
         style="clip-rule:evenodd" /></clipPath><clipPath
       clipPathUnits="userSpaceOnUse"
       id="clipPath530"><path
         d="m 304.68,527.04 h 202.8 V 738 h -202.8 z"
         id="path528"
         inkscape:connector-curvature="0"
         style="clip-rule:evenodd" /></clipPath><clipPath
       clipPathUnits="userSpaceOnUse"
       id="clipPath542"><path
         d="M 50.4,718.08 H 443.64 V 738 H 50.4 Z"
         id="path540"
         inkscape:connector-curvature="0"
         style="clip-rule:evenodd" /></clipPath><clipPath
       clipPathUnits="userSpaceOnUse"
       id="clipPath554"><path
         d="M 50.4,718.08 H 443.64 V 738 H 50.4 Z"
         id="path552"
         inkscape:connector-curvature="0"
         style="clip-rule:evenodd" /></clipPath><clipPath
       clipPathUnits="userSpaceOnUse"
       id="clipPath566"><path
         d="M 50.4,718.08 H 443.64 V 738 H 50.4 Z"
         id="path564"
         inkscape:connector-curvature="0"
         style="clip-rule:evenodd" /></clipPath><clipPath
       clipPathUnits="userSpaceOnUse"
       id="clipPath578"><path
         d="M 50.4,718.08 H 443.64 V 738 H 50.4 Z"
         id="path576"
         inkscape:connector-curvature="0"
         style="clip-rule:evenodd" /></clipPath><clipPath
       clipPathUnits="userSpaceOnUse"
       id="clipPath590"><path
         d="M 50.4,718.08 H 443.64 V 738 H 50.4 Z"
         id="path588"
         inkscape:connector-curvature="0"
         style="clip-rule:evenodd" /></clipPath><clipPath
       clipPathUnits="userSpaceOnUse"
       id="clipPath602"><path
         d="m 52.44,709.68 h 393.24 v 14.16 H 52.44 Z"
         id="path600"
         inkscape:connector-curvature="0"
         style="clip-rule:evenodd" /></clipPath></defs><sodipodi:namedview
     pagecolor="#ffffff"
     bordercolor="#666666"
     borderopacity="1"
     objecttolerance="10"
     gridtolerance="10"
     guidetolerance="10"
     inkscape:pageopacity="0"
     inkscape:pageshadow="2"
     inkscape:window-width="1920"
     inkscape:window-height="1217"
     id="namedview4"
     showgrid="false"
     inkscape:pagecheckerboard="true"
     inkscape:zoom="1"
     inkscape:cx="340.8"
     inkscape:cy="-174.71998"
     inkscape:window-x="-8"
     inkscape:window-y="-8"
     inkscape:window-maximized="1"
     inkscape:current-layer="g10" /><g
     id="g10"
     inkscape:groupmode="layer"
     inkscape:label="main"
     transform="matrix(1.3333333,0,0,-1.3333333,-67.199998,983.99998)"><path
       d="M 50.4,527.04 H 506.58 V 738 H 50.4 Z"
       style="fill:#ffffff;fill-opacity:1;fill-rule:evenodd;stroke:none"
       id="path12"
       inkscape:connector-curvature="0" /><path
       d="M 86.555,561.48 H 237.75 M 86.555,579.36 H 237.75 m -151.195,18 H 237.75 M 86.555,615.24 H 237.75 M 86.555,633.12 H 237.75 M 86.555,651 H 237.75 M 86.555,668.88 H 237.75 M 86.555,686.76 H 237.75 M 86.555,704.7 H 237.75"
       style="fill:none;stroke:#d9d9d9;stroke-width:0.75;stroke-linecap:butt;stroke-linejoin:round;stroke-miterlimit:10;stroke-dasharray:none;stroke-opacity:1"
       id="path14"
       inkscape:connector-curvature="0" /><path
       d="m 89.4,556.92 h 15.96 v -13.3 H 89.4 Z m 21.6,-0.48 h 15.96 V 543.62 H 111 Z m 21.6,-0.24 h 15.96 V 543.62 H 132.6 Z m 21.6,-1.2 h 15.96 V 543.62 H 154.2 Z m 21.6,0.36 h 15.96 V 543.62 H 175.8 Z m 21.6,0.12 h 15.96 V 543.62 H 197.4 Z m 21.6,0.24 h 15.96 v -12.1 H 219 Z"
       style="fill:#a6a6a6;fill-opacity:1;fill-rule:nonzero;stroke:none"
       id="path16"
       inkscape:connector-curvature="0" /><path
       d="m 89.4,559.08 h 15.96 v -2.16 H 89.4 Z m 21.6,-0.24 h 15.96 v -2.4 H 111 Z m 21.6,0.36 h 15.96 v -3 H 132.6 Z m 21.6,-0.12 h 15.96 V 555 H 154.2 Z m 21.6,1.44 h 15.96 v -5.16 H 175.8 Z m 21.6,1.68 h 15.96 v -6.72 H 197.4 Z m 21.6,2.88 h 15.96 v -9.36 H 219 Z"
       style="fill:#ffc702;fill-opacity:1;fill-rule:nonzero;stroke:none"
       id="path18"
       inkscape:connector-curvature="0" /><path
       d="m 89.4,568.8 h 15.96 v -9.72 H 89.4 Z m 21.6,0.6 h 15.96 V 558.84 H 111 Z m 21.6,1.92 h 15.96 V 559.2 H 132.6 Z m 21.6,1.2 h 15.96 V 559.08 H 154.2 Z m 21.6,3.36 h 15.96 V 560.52 H 175.8 Z m 21.6,2.64 h 15.96 V 562.2 H 197.4 Z M 219,582 h 15.96 V 565.08 H 219 Z"
       style="fill:#467126;fill-opacity:1;fill-rule:nonzero;stroke:none"
       id="path20"
       inkscape:connector-curvature="0" /><path
       d="m 89.4,597.72 h 15.96 V 568.8 H 89.4 Z m 21.6,0.6 h 15.96 V 569.4 H 111 Z m 21.6,1.32 h 15.96 V 571.32 H 132.6 Z m 21.6,0.84 h 15.96 V 572.52 H 154.2 Z m 21.6,3 h 15.96 v -27.6 H 175.8 Z m 21.6,3.12 h 15.96 V 578.52 H 197.4 Z m 21.6,3.72 h 15.96 V 582 H 219 Z"
       style="fill:#d57883;fill-opacity:1;fill-rule:nonzero;stroke:none"
       id="path22"
       inkscape:connector-curvature="0" /><path
       d="m 89.4,638.52 h 15.96 v -40.8 H 89.4 Z m 21.6,-5.88 h 15.96 V 598.32 H 111 Z m 21.6,-5.52 h 15.96 V 599.64 H 132.6 Z m 21.6,5.28 h 15.96 V 600.48 H 154.2 Z m 21.6,0.72 h 15.96 V 603.48 H 175.8 Z m 21.6,-0.48 h 15.96 V 606.6 H 197.4 Z m 21.6,2.88 h 15.96 v -25.2 H 219 Z"
       style="fill:#404040;fill-opacity:1;fill-rule:nonzero;stroke:none"
       id="path24"
       inkscape:connector-curvature="0" /><path
       d="m 89.4,687.48 h 15.96 V 638.52 H 89.4 Z m 21.6,-1.92 h 15.96 V 632.64 H 111 Z m 21.6,-4.08 h 15.96 V 627.12 H 132.6 Z m 21.6,3.72 h 15.96 V 632.4 H 154.2 Z m 21.6,4.92 h 15.96 v -57 H 175.8 Z m 21.6,-2.52 h 15.96 V 632.64 H 197.4 Z m 21.6,1.92 h 15.96 v -54 H 219 Z"
       style="fill:#e1ab76;fill-opacity:1;fill-rule:nonzero;stroke:none"
       id="path26"
       inkscape:connector-curvature="0" /><g
       id="g28"><path
         d="M 194.55,543.62 V 704.7"
         style="fill:none;stroke:#a6a6a6;stroke-width:0.75;stroke-linecap:butt;stroke-linejoin:round;stroke-miterlimit:10;stroke-dasharray:0.75, 0.75;stroke-dashoffset:0;stroke-opacity:1"
         id="path30"
         inkscape:connector-curvature="0" /></g><path
       d="M 86.555,543.62 H 237.75"
       style="fill:none;stroke:#000000;stroke-width:0.75;stroke-linecap:butt;stroke-linejoin:round;stroke-miterlimit:10;stroke-dasharray:none;stroke-opacity:1"
       id="path32"
       inkscape:connector-curvature="0" /><g
       id="g34"><g
         id="g36"
         clip-path="url(#clipPath40)"><text
           transform="matrix(1,0,0,-1,73.824,540.72)"
           style="font-variant:normal;font-weight:normal;font-size:9px;font-family:Arial;-inkscape-font-specification:ArialMT;writing-mode:lr-tb;fill:#000000;fill-opacity:1;fill-rule:nonzero;stroke:none"
           id="text44"><tspan
             x="0"
             y="0"
             id="tspan42">0</tspan></text>
</g></g><g
       id="g46"><g
         id="g48"
         clip-path="url(#clipPath52)"><text
           transform="matrix(1,0,0,-1,63.816,558.62)"
           style="font-variant:normal;font-weight:normal;font-size:9px;font-family:Arial;-inkscape-font-specification:ArialMT;writing-mode:lr-tb;fill:#000000;fill-opacity:1;fill-rule:nonzero;stroke:none"
           id="text56"><tspan
             x="0 5.0310001 9.9540005"
             y="0"
             sodipodi:role="line"
             id="tspan54">500</tspan></text>
</g></g><g
       id="g58"><g
         id="g60"
         clip-path="url(#clipPath64)"><text
           transform="matrix(1,0,0,-1,56.304,576.5)"
           style="font-variant:normal;font-weight:normal;font-size:9px;font-family:Arial;-inkscape-font-specification:ArialMT;writing-mode:lr-tb;fill:#000000;fill-opacity:1;fill-rule:nonzero;stroke:none"
           id="text68"><tspan
             x="0 5.0310001 7.533 12.474 17.504999"
             y="0"
             sodipodi:role="line"
             id="tspan66">1,000</tspan></text>
</g></g><g
       id="g70"><g
         id="g72"
         clip-path="url(#clipPath76)"><text
           transform="matrix(1,0,0,-1,56.304,594.41)"
           style="font-variant:normal;font-weight:normal;font-size:9px;font-family:Arial;-inkscape-font-specification:ArialMT;writing-mode:lr-tb;fill:#000000;fill-opacity:1;fill-rule:nonzero;stroke:none"
           id="text80"><tspan
             x="0 5.0310001 7.533 12.474 17.504999"
             y="0"
             sodipodi:role="line"
             id="tspan78">1,500</tspan></text>
</g></g><g
       id="g82"><g
         id="g84"
         clip-path="url(#clipPath88)"><text
           transform="matrix(1,0,0,-1,56.304,612.31)"
           style="font-variant:normal;font-weight:normal;font-size:9px;font-family:Arial;-inkscape-font-specification:ArialMT;writing-mode:lr-tb;fill:#000000;fill-opacity:1;fill-rule:nonzero;stroke:none"
           id="text92"><tspan
             x="0 5.0310001 7.533 12.474 17.504999"
             y="0"
             sodipodi:role="line"
             id="tspan90">2,000</tspan></text>
</g></g><g
       id="g94"><g
         id="g96"
         clip-path="url(#clipPath100)"><text
           transform="matrix(1,0,0,-1,56.304,630.22)"
           style="font-variant:normal;font-weight:normal;font-size:9px;font-family:Arial;-inkscape-font-specification:ArialMT;writing-mode:lr-tb;fill:#000000;fill-opacity:1;fill-rule:nonzero;stroke:none"
           id="text104"><tspan
             x="0 5.0310001 7.533 12.474 17.504999"
             y="0"
             sodipodi:role="line"
             id="tspan102">2,500</tspan></text>
</g></g><g
       id="g106"><g
         id="g108"
         clip-path="url(#clipPath112)"><text
           transform="matrix(1,0,0,-1,56.304,648.12)"
           style="font-variant:normal;font-weight:normal;font-size:9px;font-family:Arial;-inkscape-font-specification:ArialMT;writing-mode:lr-tb;fill:#000000;fill-opacity:1;fill-rule:nonzero;stroke:none"
           id="text116"><tspan
             x="0 5.0310001 7.533 12.474 17.504999"
             y="0"
             sodipodi:role="line"
             id="tspan114">3,000</tspan></text>
</g></g><g
       id="g118"><g
         id="g120"
         clip-path="url(#clipPath124)"><text
           transform="matrix(1,0,0,-1,56.304,666)"
           style="font-variant:normal;font-weight:normal;font-size:9px;font-family:Arial;-inkscape-font-specification:ArialMT;writing-mode:lr-tb;fill:#000000;fill-opacity:1;fill-rule:nonzero;stroke:none"
           id="text128"><tspan
             x="0 5.0310001 7.533 12.474 17.504999"
             y="0"
             sodipodi:role="line"
             id="tspan126">3,500</tspan></text>
</g></g><g
       id="g130"><g
         id="g132"
         clip-path="url(#clipPath136)"><text
           transform="matrix(1,0,0,-1,56.304,683.9)"
           style="font-variant:normal;font-weight:normal;font-size:9px;font-family:Arial;-inkscape-font-specification:ArialMT;writing-mode:lr-tb;fill:#000000;fill-opacity:1;fill-rule:nonzero;stroke:none"
           id="text140"><tspan
             x="0 5.0310001 7.533 12.474 17.504999"
             y="0"
             sodipodi:role="line"
             id="tspan138">4,000</tspan></text>
</g></g><g
       id="g142"><g
         id="g144"
         clip-path="url(#clipPath148)"><text
           transform="matrix(1,0,0,-1,56.304,701.81)"
           style="font-variant:normal;font-weight:normal;font-size:9px;font-family:Arial;-inkscape-font-specification:ArialMT;writing-mode:lr-tb;fill:#000000;fill-opacity:1;fill-rule:nonzero;stroke:none"
           id="text152"><tspan
             x="0 5.0310001 7.533 12.474 17.504999"
             y="0"
             sodipodi:role="line"
             id="tspan150">4,500</tspan></text>
</g></g><g
       id="g154"><g
         id="g156"
         clip-path="url(#clipPath160)"><text
           transform="matrix(1,0,0,-1,87.36,529.99)"
           style="font-variant:normal;font-weight:normal;font-size:9px;font-family:Arial;-inkscape-font-specification:ArialMT;writing-mode:lr-tb;fill:#000000;fill-opacity:1;fill-rule:nonzero;stroke:none"
           id="text164"><tspan
             x="0 5.0310001 9.9540005 14.985"
             y="0"
             sodipodi:role="line"
             id="tspan162">2018</tspan></text>
</g></g><g
       id="g166"><g
         id="g168"
         clip-path="url(#clipPath172)"><text
           transform="matrix(1,0,0,-1,130.56,529.99)"
           style="font-variant:normal;font-weight:normal;font-size:9px;font-family:Arial;-inkscape-font-specification:ArialMT;writing-mode:lr-tb;fill:#000000;fill-opacity:1;fill-rule:nonzero;stroke:none"
           id="text176"><tspan
             x="0 5.0310001 9.9540005 14.985"
             y="0"
             sodipodi:role="line"
             id="tspan174">2020</tspan></text>
</g></g><g
       id="g178"><g
         id="g180"
         clip-path="url(#clipPath184)"><text
           transform="matrix(1,0,0,-1,173.78,529.99)"
           style="font-variant:normal;font-weight:normal;font-size:9px;font-family:Arial;-inkscape-font-specification:ArialMT;writing-mode:lr-tb;fill:#000000;fill-opacity:1;fill-rule:nonzero;stroke:none"
           id="text188"><tspan
             x="0 5.0310001 9.9540005 14.985"
             y="0"
             sodipodi:role="line"
             id="tspan186">2022</tspan></text>
</g></g><g
       id="g190"><g
         id="g192"
         clip-path="url(#clipPath196)"><text
           transform="matrix(1,0,0,-1,216.98,529.99)"
           style="font-variant:normal;font-weight:normal;font-size:9px;font-family:Arial;-inkscape-font-specification:ArialMT;writing-mode:lr-tb;fill:#000000;fill-opacity:1;fill-rule:nonzero;stroke:none"
           id="text200"><tspan
             x="0 5.0310001 9.9540005 14.985"
             y="0"
             sodipodi:role="line"
             id="tspan198">2024</tspan></text>
</g></g><g
       id="g202"><g
         id="g204"
         clip-path="url(#clipPath208)"><text
           transform="matrix(1,0,0,-1,244.61,656.83)"
           style="font-variant:normal;font-weight:bold;font-size:9.96000004px;font-family:Arial;-inkscape-font-specification:Arial-BoldMT;writing-mode:lr-tb;fill:#e1ab76;fill-opacity:1;fill-rule:nonzero;stroke:none"
           id="text212"><tspan
             x="0 6.1054802 11.64324 14.95992 21.09528 24.93984 30.4776 33.246479 36.085079 42.190559 47.728321"
             y="0"
             sodipodi:role="line"
             id="tspan210">natural gas</tspan></text>
</g></g><g
       id="g214"><g
         id="g216"
         clip-path="url(#clipPath220)"><text
           transform="matrix(1,0,0,-1,261.29,621.07)"
           style="font-variant:normal;font-weight:bold;font-size:9.96000004px;font-family:Arial;-inkscape-font-specification:Arial-BoldMT;writing-mode:lr-tb;fill:#333333;fill-opacity:1;fill-rule:nonzero;stroke:none"
           id="text224"><tspan
             x="0 5.5377598 11.62332 17.161079"
             y="0"
             sodipodi:role="line"
             id="tspan222">coal</tspan></text>
</g></g><g
       id="g226"><g
         id="g228"
         clip-path="url(#clipPath232)"><text
           transform="matrix(1,0,0,-1,253.49,589.99)"
           style="font-variant:normal;font-weight:bold;font-size:9.96000004px;font-family:Arial;-inkscape-font-specification:Arial-BoldMT;writing-mode:lr-tb;fill:#d57883;fill-opacity:1;fill-rule:nonzero;stroke:none"
           id="text236"><tspan
             x="0 6.1054802 12.21096 17.74872 20.517599 26.01552 31.55328"
             y="0"
             sodipodi:role="line"
             id="tspan234">nuclear</tspan></text>
</g></g><g
       id="g238"><g
         id="g240"
         clip-path="url(#clipPath244)"><text
           transform="matrix(1,0,0,-1,259.73,567.05)"
           style="font-variant:normal;font-weight:bold;font-size:9.96000004px;font-family:Arial;-inkscape-font-specification:Arial-BoldMT;writing-mode:lr-tb;fill:#5d9732;fill-opacity:1;fill-rule:nonzero;stroke:none"
           id="text248"><tspan
             x="0 7.9082398 10.67712 16.76268"
             y="0"
             sodipodi:role="line"
             id="tspan246">wind</tspan></text>
</g></g><g
       id="g250"><g
         id="g252"
         clip-path="url(#clipPath256)"><text
           transform="matrix(1,0,0,-1,259.37,555.53)"
           style="font-variant:normal;font-weight:bold;font-size:9.96000004px;font-family:Arial;-inkscape-font-specification:Arial-BoldMT;writing-mode:lr-tb;fill:#f4c019;fill-opacity:1;fill-rule:nonzero;stroke:none"
           id="text260"><tspan
             x="0 5.5377598 11.62332 14.3922 19.92996"
             y="0"
             sodipodi:role="line"
             id="tspan258">solar</tspan></text>
</g></g><g
       id="g262"><g
         id="g264"
         clip-path="url(#clipPath268)"><text
           transform="matrix(1,0,0,-1,258.77,544.13)"
           style="font-variant:normal;font-weight:bold;font-size:9.96000004px;font-family:Arial;-inkscape-font-specification:Arial-BoldMT;writing-mode:lr-tb;fill:#a6a6a6;fill-opacity:1;fill-rule:nonzero;stroke:none"
           id="text272"><tspan
             x="0 6.1054802 9.4520397 15.55752 21.09528"
             y="0"
             sodipodi:role="line"
             id="tspan270">other</tspan></text>
</g></g><g
       id="g274"><g
         id="g276"
         clip-path="url(#clipPath280)"><text
           transform="matrix(1,0,0,-1,199.56,695.81)"
           style="font-variant:normal;font-weight:normal;font-size:8.03999996px;font-family:Arial;-inkscape-font-specification:ArialMT;writing-mode:lr-tb;fill:#7f7f7f;fill-opacity:1;fill-rule:nonzero;stroke:none"
           id="text284"><tspan
             x="0 2.2753201 6.7133999 9.3505201 13.7886 17.85684 22.29492 26.363159"
             y="0"
             sodipodi:role="line"
             id="tspan282">forecast</tspan></text>
</g></g><path
       d="M 331.93,561.84 H 491.36 M 331.93,579.72 H 491.36 M 331.93,597.6 h 159.43 m -159.43,17.88 h 159.43 m -159.43,17.88 h 159.43 m -159.43,17.88 h 159.43 m -159.43,17.88 h 159.43 m -159.43,17.76 h 159.43 m -159.43,17.91 h 159.43"
       style="fill:none;stroke:#d9d9d9;stroke-width:0.75;stroke-linecap:butt;stroke-linejoin:round;stroke-miterlimit:10;stroke-dasharray:none;stroke-opacity:1"
       id="path286"
       inkscape:connector-curvature="0" /><g
       id="g288"><path
         d="M 464.79,544.02 V 704.79"
         style="fill:none;stroke:#a6a6a6;stroke-width:0.75;stroke-linecap:butt;stroke-linejoin:round;stroke-miterlimit:10;stroke-dasharray:0.75, 0.75;stroke-dashoffset:0;stroke-opacity:1"
         id="path290"
         inkscape:connector-curvature="0" /></g><path
       d="M 331.93,544.02 H 491.36"
       style="fill:none;stroke:#000000;stroke-width:0.75;stroke-linecap:butt;stroke-linejoin:round;stroke-miterlimit:10;stroke-dasharray:none;stroke-opacity:1"
       id="path292"
       inkscape:connector-curvature="0" /><path
       d="m 331.93,544.02 v -2.71 m 26.63,2.71 v -2.71 m 26.52,2.71 v -2.71 m 26.52,2.71 v -2.71 m 26.64,2.71 v -2.71 m 26.52,2.71 v -2.71 m 26.6,2.71 v -2.71"
       style="fill:none;stroke:#000000;stroke-width:0.75;stroke-linecap:butt;stroke-linejoin:round;stroke-miterlimit:10;stroke-dasharray:none;stroke-opacity:1"
       id="path294"
       inkscape:connector-curvature="0" /><g
       id="g296"><g
         id="g298"
         clip-path="url(#clipPath302)"><path
           d="m 331.93,577.01 26.63,-0.89 26.52,0.48 26.52,-3.72 26.64,-0.18 26.52,0.66 26.6,0.36"
           style="fill:none;stroke:#a6a6a6;stroke-width:2.25;stroke-linecap:round;stroke-linejoin:round;stroke-miterlimit:10;stroke-dasharray:none;stroke-opacity:1"
           id="path304"
           inkscape:connector-curvature="0" /></g></g><g
       id="g306"><g
         id="g308"
         clip-path="url(#clipPath312)"><path
           d="m 331.93,615.84 26.63,1.08 26.52,0.38 26.52,-3.02 26.64,-2.87 26.52,2.27 26.6,-0.24"
           style="fill:none;stroke:#d57883;stroke-width:2.25;stroke-linecap:round;stroke-linejoin:round;stroke-miterlimit:10;stroke-dasharray:none;stroke-opacity:1"
           id="path314"
           inkscape:connector-curvature="0" /></g></g><g
       id="g316"><g
         id="g318"
         clip-path="url(#clipPath322)"><path
           d="m 331.93,645.58 26.63,-15.22 26.52,-15.12 26.52,9.36 26.64,-8.28 26.52,-7.56 26.6,-3.04"
           style="fill:none;stroke:#404040;stroke-width:2.25;stroke-linecap:round;stroke-linejoin:round;stroke-miterlimit:10;stroke-dasharray:none;stroke-opacity:1"
           id="path324"
           inkscape:connector-curvature="0" /></g></g><g
       id="g326"><g
         id="g328"
         clip-path="url(#clipPath332)"><path
           d="m 331.93,665.46 26.63,11.58 26.52,7.97 26.52,-7.61 26.64,5.52 26.52,-2.64 26.6,-4.2"
           style="fill:none;stroke:#e1ab76;stroke-width:2.25;stroke-linecap:round;stroke-linejoin:round;stroke-miterlimit:10;stroke-dasharray:none;stroke-opacity:1"
           id="path334"
           inkscape:connector-curvature="0" /></g></g><g
       id="g336"><g
         id="g338"
         clip-path="url(#clipPath342)"><path
           d="m 331.93,549.32 26.63,0.88 26.52,1.8 26.52,2.04 26.64,2.4 26.52,4.32 26.6,6.1"
           style="fill:none;stroke:#ffc702;stroke-width:2.25;stroke-linecap:round;stroke-linejoin:round;stroke-miterlimit:10;stroke-dasharray:none;stroke-opacity:1"
           id="path344"
           inkscape:connector-curvature="0" /></g></g><g
       id="g346"><g
         id="g348"
         clip-path="url(#clipPath352)"><path
           d="m 331.93,568.24 26.63,2.36 26.52,4.68 26.52,2.88 26.64,3.48 26.52,2.88 26.6,1.1"
           style="fill:none;stroke:#5d9732;stroke-width:2.25;stroke-linecap:round;stroke-linejoin:round;stroke-miterlimit:10;stroke-dasharray:none;stroke-opacity:1"
           id="path354"
           inkscape:connector-curvature="0" /></g></g><g
       id="g356"><g
         id="g358"
         clip-path="url(#clipPath362)"><text
           transform="matrix(1,0,0,-1,311.26,541.1)"
           style="font-variant:normal;font-weight:normal;font-size:9px;font-family:Arial;-inkscape-font-specification:ArialMT;writing-mode:lr-tb;fill:#000000;fill-opacity:1;fill-rule:nonzero;stroke:none"
           id="text366"><tspan
             x="0 5.04"
             y="0"
             sodipodi:role="line"
             id="tspan364">0%</tspan></text>
</g></g><g
       id="g368"><g
         id="g370"
         clip-path="url(#clipPath374)"><text
           transform="matrix(1,0,0,-1,311.26,558.98)"
           style="font-variant:normal;font-weight:normal;font-size:9px;font-family:Arial;-inkscape-font-specification:ArialMT;writing-mode:lr-tb;fill:#000000;fill-opacity:1;fill-rule:nonzero;stroke:none"
           id="text378"><tspan
             x="0 5.04"
             y="0"
             sodipodi:role="line"
             id="tspan376">5%</tspan></text>
</g></g><g
       id="g380"><g
         id="g382"
         clip-path="url(#clipPath386)"><text
           transform="matrix(1,0,0,-1,306.24,576.84)"
           style="font-variant:normal;font-weight:normal;font-size:9px;font-family:Arial;-inkscape-font-specification:ArialMT;writing-mode:lr-tb;fill:#000000;fill-opacity:1;fill-rule:nonzero;stroke:none"
           id="text390"><tspan
             x="0 5.0310001 9.9540005"
             y="0"
             sodipodi:role="line"
             id="tspan388">10%</tspan></text>
</g></g><g
       id="g392"><g
         id="g394"
         clip-path="url(#clipPath398)"><text
           transform="matrix(1,0,0,-1,306.24,594.72)"
           style="font-variant:normal;font-weight:normal;font-size:9px;font-family:Arial;-inkscape-font-specification:ArialMT;writing-mode:lr-tb;fill:#000000;fill-opacity:1;fill-rule:nonzero;stroke:none"
           id="text402"><tspan
             x="0 5.0310001 9.9540005"
             y="0"
             sodipodi:role="line"
             id="tspan400">15%</tspan></text>
</g></g><g
       id="g404"><g
         id="g406"
         clip-path="url(#clipPath410)"><text
           transform="matrix(1,0,0,-1,306.24,612.58)"
           style="font-variant:normal;font-weight:normal;font-size:9px;font-family:Arial;-inkscape-font-specification:ArialMT;writing-mode:lr-tb;fill:#000000;fill-opacity:1;fill-rule:nonzero;stroke:none"
           id="text414"><tspan
             x="0 5.0310001 9.9540005"
             y="0"
             sodipodi:role="line"
             id="tspan412">20%</tspan></text>
</g></g><g
       id="g416"><g
         id="g418"
         clip-path="url(#clipPath422)"><text
           transform="matrix(1,0,0,-1,306.24,630.43)"
           style="font-variant:normal;font-weight:normal;font-size:9px;font-family:Arial;-inkscape-font-specification:ArialMT;writing-mode:lr-tb;fill:#000000;fill-opacity:1;fill-rule:nonzero;stroke:none"
           id="text426"><tspan
             x="0 5.0310001 9.9540005"
             y="0"
             sodipodi:role="line"
             id="tspan424">25%</tspan></text>
</g></g><g
       id="g428"><g
         id="g430"
         clip-path="url(#clipPath434)"><text
           transform="matrix(1,0,0,-1,306.24,648.31)"
           style="font-variant:normal;font-weight:normal;font-size:9px;font-family:Arial;-inkscape-font-specification:ArialMT;writing-mode:lr-tb;fill:#000000;fill-opacity:1;fill-rule:nonzero;stroke:none"
           id="text438"><tspan
             x="0 5.0310001 9.9540005"
             y="0"
             sodipodi:role="line"
             id="tspan436">30%</tspan></text>
</g></g><g
       id="g440"><g
         id="g442"
         clip-path="url(#clipPath446)"><text
           transform="matrix(1,0,0,-1,306.24,666.17)"
           style="font-variant:normal;font-weight:normal;font-size:9px;font-family:Arial;-inkscape-font-specification:ArialMT;writing-mode:lr-tb;fill:#000000;fill-opacity:1;fill-rule:nonzero;stroke:none"
           id="text450"><tspan
             x="0 5.0310001 9.9540005"
             y="0"
             sodipodi:role="line"
             id="tspan448">35%</tspan></text>
</g></g><g
       id="g452"><g
         id="g454"
         clip-path="url(#clipPath458)"><text
           transform="matrix(1,0,0,-1,306.24,684.05)"
           style="font-variant:normal;font-weight:normal;font-size:9px;font-family:Arial;-inkscape-font-specification:ArialMT;writing-mode:lr-tb;fill:#000000;fill-opacity:1;fill-rule:nonzero;stroke:none"
           id="text462"><tspan
             x="0 5.0310001 9.9540005"
             y="0"
             sodipodi:role="line"
             id="tspan460">40%</tspan></text>
</g></g><g
       id="g464"><g
         id="g466"
         clip-path="url(#clipPath470)"><text
           transform="matrix(1,0,0,-1,306.24,701.9)"
           style="font-variant:normal;font-weight:normal;font-size:9px;font-family:Arial;-inkscape-font-specification:ArialMT;writing-mode:lr-tb;fill:#000000;fill-opacity:1;fill-rule:nonzero;stroke:none"
           id="text474"><tspan
             x="0 5.0310001 9.9540005"
             y="0"
             sodipodi:role="line"
             id="tspan472">45%</tspan></text>
</g></g><g
       id="g476"><g
         id="g478"
         clip-path="url(#clipPath482)"><text
           transform="matrix(1,0,0,-1,321.98,530.4)"
           style="font-variant:normal;font-weight:normal;font-size:9px;font-family:Arial;-inkscape-font-specification:ArialMT;writing-mode:lr-tb;fill:#000000;fill-opacity:1;fill-rule:nonzero;stroke:none"
           id="text486"><tspan
             x="0 5.0310001 9.9540005 14.985"
             y="0"
             sodipodi:role="line"
             id="tspan484">2018</tspan></text>
</g></g><g
       id="g488"><g
         id="g490"
         clip-path="url(#clipPath494)"><text
           transform="matrix(1,0,0,-1,375.14,530.4)"
           style="font-variant:normal;font-weight:normal;font-size:9px;font-family:Arial;-inkscape-font-specification:ArialMT;writing-mode:lr-tb;fill:#000000;fill-opacity:1;fill-rule:nonzero;stroke:none"
           id="text498"><tspan
             x="0 5.0310001 9.9540005 14.985"
             y="0"
             sodipodi:role="line"
             id="tspan496">2020</tspan></text>
</g></g><g
       id="g500"><g
         id="g502"
         clip-path="url(#clipPath506)"><text
           transform="matrix(1,0,0,-1,428.28,530.4)"
           style="font-variant:normal;font-weight:normal;font-size:9px;font-family:Arial;-inkscape-font-specification:ArialMT;writing-mode:lr-tb;fill:#000000;fill-opacity:1;fill-rule:nonzero;stroke:none"
           id="text510"><tspan
             x="0 5.0310001 9.9540005 14.985"
             y="0"
             sodipodi:role="line"
             id="tspan508">2022</tspan></text>
</g></g><g
       id="g512"><g
         id="g514"
         clip-path="url(#clipPath518)"><text
           transform="matrix(1,0,0,-1,481.44,530.4)"
           style="font-variant:normal;font-weight:normal;font-size:9px;font-family:Arial;-inkscape-font-specification:ArialMT;writing-mode:lr-tb;fill:#000000;fill-opacity:1;fill-rule:nonzero;stroke:none"
           id="text522"><tspan
             x="0 5.0310001 9.9540005 14.985"
             y="0"
             sodipodi:role="line"
             id="tspan520">2024</tspan></text>
</g></g><g
       id="g524"><g
         id="g526"
         clip-path="url(#clipPath530)"><text
           transform="matrix(1,0,0,-1,469.1,696.05)"
           style="font-variant:normal;font-weight:normal;font-size:8.03999996px;font-family:Arial;-inkscape-font-specification:ArialMT;writing-mode:lr-tb;fill:#7f7f7f;fill-opacity:1;fill-rule:nonzero;stroke:none"
           id="text534"><tspan
             x="0 2.2753201 6.7133999 9.3505201 13.7886 17.85684 22.29492 26.363159"
             y="0"
             sodipodi:role="line"
             id="tspan532">forecast</tspan></text>
</g></g><g
       id="g536"><g
         id="g538"
         clip-path="url(#clipPath542)"><text
           transform="matrix(1,0,0,-1,51.84,727.2)"
           style="font-variant:normal;font-weight:bold;font-size:9.96000004px;font-family:Arial;-inkscape-font-specification:Arial-BoldMT;writing-mode:lr-tb;fill:#000000;fill-opacity:1;fill-rule:nonzero;stroke:none"
           id="text546"><tspan
             x="0 7.1911201 9.96 16.56348 19.332359"
             y="0"
             sodipodi:role="line"
             id="tspan544">U.S. </tspan></text>
</g></g><g
       id="g548"><g
         id="g550"
         clip-path="url(#clipPath554)"><text
           transform="matrix(1,0,0,-1,74.064,727.2)"
           style="font-variant:normal;font-weight:bold;font-size:9.96000004px;font-family:Arial;-inkscape-font-specification:Arial-BoldMT;writing-mode:lr-tb;fill:#000000;fill-opacity:1;fill-rule:nonzero;stroke:none"
           id="text558"><tspan
             x="0 5.5377598 8.3066397 13.80456 19.342319 22.659 26.53344 29.30232 34.80024 37.569118 40.90572 46.304039 49.41156 55.51704 61.054798 67.140358 72.678123 76.512718 82.050484 85.367157 88.13604 94.261436"
             y="0"
             sodipodi:role="line"
             id="tspan556">electricity generation</tspan></text>
</g></g><g
       id="g560"><g
         id="g562"
         clip-path="url(#clipPath566)"><text
           transform="matrix(1,0,0,-1,177.5,727.2)"
           style="font-variant:normal;font-weight:bold;font-size:9.96000004px;font-family:Arial;-inkscape-font-specification:Arial-BoldMT;writing-mode:lr-tb;fill:#000000;fill-opacity:1;fill-rule:nonzero;stroke:none"
           id="text570"><tspan
             x="0 6.1054802 11.5038 14.37228 19.91004 25.9956 31.53336 35.367962 41.473438 46.871761 49.979279 55.51704 61.6026 67.727997 71.572563 77.110321 82.608238 85.476723 88.82328 94.361038 99.858963 105.39672"
             y="0"
             sodipodi:role="line"
             id="tspan568">by energy source (2018</tspan></text>
</g></g><g
       id="g572"><g
         id="g574"
         clip-path="url(#clipPath578)"><text
           transform="matrix(1,0,0,-1,288.53,727.2)"
           style="font-variant:normal;font-weight:500;font-size:9.96000004px;font-family:'Engravers MT';-inkscape-font-specification:EngraversMT;writing-mode:lr-tb;fill:#000000;fill-opacity:1;fill-rule:nonzero;stroke:#000000;stroke-width:0.28457001;stroke-linecap:butt;stroke-linejoin:round;stroke-miterlimit:10;stroke-dasharray:none;stroke-opacity:1"
           id="text582"><tspan
             x="0"
             y="0"
             id="tspan580">–</tspan></text>
</g></g><g
       id="g584"><g
         id="g586"
         clip-path="url(#clipPath590)"><text
           transform="matrix(1,0,0,-1,293.69,727.2)"
           style="font-variant:normal;font-weight:bold;font-size:9.96000004px;font-family:Arial;-inkscape-font-specification:Arial-BoldMT;writing-mode:lr-tb;fill:#000000;fill-opacity:1;fill-rule:nonzero;stroke:none"
           id="text594"><tspan
             x="0 5.5199599 11.03992 16.559879 22.07984"
             y="0"
             sodipodi:role="line"
             id="tspan592">2024)</tspan></text>
</g></g><g
       id="g596"><g
         id="g598"
         clip-path="url(#clipPath602)"><text
           transform="matrix(1,0,0,-1,53.88,714)"
           style="font-variant:normal;font-weight:normal;font-size:9px;font-family:Arial;-inkscape-font-specification:ArialMT;writing-mode:lr-tb;fill:#000000;fill-opacity:1;fill-rule:nonzero;stroke:none"
           id="text606"><tspan
             x="0 5.0310001 10.062 15.093 20.124001 25.155001 27.188999 29.466 34.497002 39.528 44.558998 49.59 52.587002 57.618 60.119999 62.172001 67.203003 72.234001 74.736 76.914001 78.947998 83.978996 86.382004 91.413002 93.446999 95.481003 97.514999 99.549004 104.58 109.611 111.888 116.442 118.476 120.51 125.541 131.90401 136.935 139.437 141.966 146.99699 152.028 157.05901 160.056 164.61 234.243 238.815 243.84599 248.877 251.87399 256.905 259.18201 264.21301 266.715 269.24399 271.746 276.79501 279.297 284.34601 286.38 288.65701 293.68799 298.71899 303.75 308.78101 311.77802 316.80899 319.311 321.36301 326.39401 331.42499"
             y="0"
             sodipodi:role="line"
             id="tspan604">annual generation, in billion kilowatthours share of total generation </tspan></text>
</g></g><g
       id="g633"
       transform="matrix(0.45112202,0,0,-0.47474517,475.02842,731.5944)"><path
         id="path608"
         d="m 44.23,28.13 c 0.02,-6.34 -3.33,-7.55 -6.19,-7.76 -4.72,-0.35 -8.2,2.54 -8.2,2.54 l 2.59,2.65 c 2.76,-2.21 7.42,-1.75 7.79,1.13 0,0 -4.08,0.92 -4.98,1.08 -2.84,0.6 -4.7,0.85 -6.19,2.95 -1.29,2.03 -0.95,5.14 0.95,6.82 2.63,2.33 8.07,2.33 10.8,-0.82 0,0 0.34,1.77 0.58,2.32 h 4.11 C 43.76,35.07 44.22,30.81 44.23,28.13 Z m -4.01,2.85 c -0.23,1.86 -1.48,4.11 -4.89,4.55 -2.1,0.27 -4.1,-1.1 -3.05,-3.03 0.33,-0.6 1.08,-1.07 2.06,-1.21 0.6,-0.09 1.27,-0.16 1.97,-0.28 1.54,-0.25 3.03,-0.54 3.91,-0.88 0,0 0.03,0.63 0,0.85 z"
         inkscape:connector-curvature="0"
         style="fill:#333333" /><path
         id="path610"
         d="m 17.69,29.88 c 0.06,-5.45 -2.95,-9.32 -8.39,-9.3 -5.33,-0.06 -8.57,4.06 -8.49,9.31 0,2.81 0.8,5.07 2.39,6.77 2,2.3 5.81,3.01 8.87,2.24 2.21,-0.53 3.94,-2.03 5.2,-3.94 L 13.8,33.05 c -2.58,4.3 -8.52,2.81 -8.75,-2.22 h 12.62 l 0.02,-0.96 z M 5.32,27.51 c 0.96,-4.24 7.29,-4.44 8.18,0 H 5.31 Z"
         inkscape:connector-curvature="0"
         style="fill:#333333" /><path
         id="path612"
         d="M 41.61,8.68 C 34.49,4.67 23.03,5.18 1.84,17.02 0.68,17.67 0.67,17.31 0.95,16.97 2.42,15.22 21.34,-0.32 38.13,1.15 c 4.9,0.43 13.62,3.27 15.07,12.73 1.45,9.44 -2.84,15 -4.13,15.3 1.71,-6.58 0.6,-15.96 -7.46,-20.5 z"
         inkscape:connector-curvature="0"
         style="fill:#019eda" /><g
         id="g618"><path
           id="path614"
           d="M 21.02,22.35 V 39.04 H 25.1 V 22.35 Z"
           inkscape:connector-curvature="0"
           style="fill:#333333" /><circle
           id="circle616"
           r="2.6300001"
           cy="17.17"
           cx="23.059999"
           style="fill:#333333" /></g></g></g></svg>